Coordinates
version=1
nRows=16
nColumns=22
inDegrees=yes

Units are S.I. units (second, meters, Newtons, ...)
If the header above contains a line with 'inDegrees', this indicates whether rotational values are in degrees (yes) or radians (no).

endheader
time	pelvis_tilt	pelvis_list	pelvis_rotation	pelvis_tx	pelvis_ty	pelvis_tz	hip_flexion_r	hip_adduction_r	hip_rotation_r	knee_angle_r	ankle_angle_r	subtalar_angle_r	hip_flexion_l	hip_adduction_l	hip_rotation_l	knee_angle_l	ankle_angle_l	subtalar_angle_l	lumbar_extension	lumbar_bending	lumbar_rotation
      5.35000000	      4.89982073	     -0.77035346	    -26.69169377	      0.22947692	      0.89334694	      0.31671910	     -6.90354118	      3.06237580	     -7.28391032	    -16.94265559	     24.31873727	     -9.56709163	     21.87777218	     -6.00796452	     -8.87319026	    -20.45798241	      7.77514168	      3.68636985	    -12.85338529	     -2.94589345	      6.02166812
      5.36000000	      4.89425688	     -0.74565674	    -26.74474877	      0.23293835	      0.89281285	      0.31778298	     -7.13668773	      2.98860919	     -7.21358637	    -16.96050784	     24.48780909	     -9.52385545	     21.82277135	     -5.86704343	     -8.97355175	    -19.67815831	      7.82568644	      3.99304029	    -12.80257965	     -2.93077968	      5.89215394
      5.37000000	      4.81739370	     -0.73193125	    -26.77721095	      0.23645546	      0.89217449	      0.31881778	     -7.32995101	      2.96720523	     -7.11958338	    -16.93694486	     24.61842606	     -9.48790614	     21.86841893	     -5.77845419	     -9.08279193	    -19.04452951	      7.91966354	      4.10939576	    -12.68246185	     -2.86837032	      5.73749838
      5.38000000	      4.86358867	     -0.72701119	    -26.86956682	      0.24001910	      0.89173396	      0.31990449	     -7.63417463	      2.86632081	     -7.07140465	    -16.94395301	     24.77749156	     -9.38000381	     21.73754649	     -5.67350027	     -9.35873197	    -18.43756693	      7.93868120	      4.44975159	    -12.70157725	     -2.87135164	      5.64728385
      5.39000000	      4.78484542	     -0.72763377	    -26.91848705	      0.24362619	      0.89108985	      0.32092105	     -7.83335808	      2.84443657	     -6.99037135	    -16.93008895	     24.91902704	     -9.32306736	     21.78047560	     -5.62492477	     -9.54466934	    -17.99570151	      8.03162786	      4.52686706	    -12.59143561	     -2.80371342	      5.51645360
      5.40000000	      4.78041233	     -0.73721893	    -27.05280479	      0.24722364	      0.89057008	      0.32200404	     -8.08448177	      2.76661799	     -6.88769652	    -16.95781646	     25.07179813	     -9.17894517	     21.70375434	     -5.59106929	     -9.89529826	    -17.59840440	      8.09485704	      4.68785444	    -12.57541195	     -2.77865515	      5.48548403
      5.41000000	      4.72863001	     -0.75123779	    -27.16565611	      0.25087040	      0.88998259	      0.32304156	     -8.31261570	      2.71978585	     -6.77561141	    -16.95021971	     25.18825116	     -9.02724421	     21.69004784	     -5.58083513	    -10.19641270	    -17.31135006	      8.13869124	      4.78651791	    -12.51488927	     -2.72657426	      5.42601661
      5.42000000	      4.65816591	     -0.76387772	    -27.29468615	      0.25454555	      0.88936671	      0.32406423	     -8.51625173	      2.67242302	     -6.65027532	    -16.95434649	     25.29981179	     -8.87277827	     21.68849471	     -5.58600493	    -10.49226515	    -17.09930519	      8.17548365	      4.84563687	    -12.43980309	     -2.67098204	      5.38697995
      5.43000000	      4.57513825	     -0.77786167	    -27.44175580	      0.25824914	      0.88873719	      0.32508050	     -8.70426045	      2.62438877	     -6.50783945	    -16.96657981	     25.39971784	     -8.70853302	     21.68692047	     -5.60488994	    -10.76734190	    -16.95148755	      8.19993696	      4.88187378	    -12.35716987	     -2.61496940	      5.37315510
      5.44000000	      4.47008246	     -0.78428965	    -27.57068144	      0.26202240	      0.88807278	      0.32604911	     -8.88568918	      2.58038447	     -6.37579895	    -16.94982375	     25.50149520	     -8.59884205	     21.71059485	     -5.61736991	    -10.96315855	    -16.87385913	      8.20395542	      4.89043754	    -12.25090777	     -2.55498953	      5.33271346
      5.45000000	      4.35894569	     -0.79695622	    -27.75449928	      0.26580190	      0.88741805	      0.32707743	     -9.04468941	      2.53352594	     -6.19385715	    -16.96714602	     25.59043430	     -8.44473549	     21.70538165	     -5.65736668	    -11.17110988	    -16.83056031	      8.20138215	      4.89166051	    -12.14169488	     -2.50187258	      5.36765424
      5.46000000	      4.23588752	     -0.80496218	    -27.94173901	      0.26964508	      0.88675945	      0.32807580	     -9.18903119	      2.48038484	     -6.02618163	    -16.99026994	     25.64913074	     -8.28180678	     21.69621548	     -5.69072920	    -11.31046703	    -16.82344853	      8.17904978	      4.87987914	    -12.02074448	     -2.45005806	      5.41124899
      5.47000000	      4.10100094	     -0.80799256	    -28.13278385	      0.27355461	      0.88609763	      0.32904318	     -9.32455265	      2.42320600	     -5.85801109	    -17.00665008	     25.69796953	     -8.11799262	     21.68910233	     -5.71758353	    -11.38552731	    -16.85930558	      8.13308799	      4.85228640	    -11.88807928	     -2.39681352	      5.45894105
      5.48000000	      3.95279030	     -0.80955347	    -28.33340247	      0.27753341	      0.88544070	      0.33002480	     -9.44703286	      2.36645776	     -5.68889722	    -17.03025356	     25.72577622	     -7.94679994	     21.67737910	     -5.74652424	    -11.40784610	    -16.92371322	      8.06254623	      4.80646016	    -11.73761063	     -2.34828591	      5.50766433
      5.49000000	      3.79355920	     -0.80326844	    -28.53110071	      0.28162033	      0.88479864	      0.33098951	     -9.57552930	      2.30451313	     -5.53448084	    -17.02316724	     25.74890423	     -7.79866461	     21.66263137	     -5.76167972	    -11.36750378	    -17.00828048	      7.96537881	      4.75201518	    -11.56653746	     -2.30197305	      5.55164697
      5.50000000	      3.63778031	     -0.78575515	    -28.72761890	      0.28579229	      0.88418962	      0.33191625	     -9.71207550	      2.22485343	     -5.37486586	    -17.00345749	     25.75372362	     -7.67410709	     21.65361182	     -5.75499314	    -11.26926161	    -17.14167651	      7.83641417	      4.69500879	    -11.39526259	     -2.26983783	      5.60814124
